<svg width="1374" height="300" viewBox="0 0 1374 300" fill="none" xmlns="http://www.w3.org/2000/svg">
<g clip-path="url(#clip0_1183_2219)">
<path d="M193.844 118.452C178.915 111.096 162.62 106.925 145.994 106.202C130.657 106.202 122.966 111.59 122.966 120.018C122.966 128.446 133.789 130.841 147.421 132.867L160.731 134.894C193.291 139.821 211.391 154.421 211.391 179.797C211.391 210.791 185.969 230.779 142.309 230.779C121.861 230.779 95.0572 226.911 75.5762 213.14L91.511 182.468C106.666 192.551 124.575 197.684 142.77 197.159C161.514 197.159 170.402 191.909 170.402 183.067C170.402 175.79 162.849 171.737 145.487 169.25L133.236 167.546C98.5113 162.941 81.333 147.559 81.333 121.998C81.333 91.1419 105.189 72.8582 144.704 72.8582C166.399 72.4895 187.86 77.3885 207.246 87.1351L193.844 118.452Z" fill="white"/>
<path d="M350.613 120.755H296.269V167.27C296.269 186.014 306.171 192.83 318.697 192.83C329.151 191.904 339.213 188.408 347.988 182.652L361.804 214.89C347.269 225.15 329.855 230.536 312.066 230.273C274.854 230.273 255.787 209.226 255.787 170.402V120.755H221.799L236.997 84.8325H255.787V32.2383H296.269V84.9707H350.613V120.755Z" fill="white"/>
<path d="M533.101 150.036C533.101 195.308 498.514 229.066 451.723 229.066C404.931 229.066 370.713 195.308 370.713 150.036C370.713 104.765 405.346 71.0527 451.723 71.0527C498.1 71.0527 533.101 104.811 533.101 150.036ZM411.932 150.036C411.932 174.399 428.972 191.485 451.723 191.485C474.474 191.485 491.698 174.445 491.698 150.036C491.698 125.627 474.52 108.587 451.723 108.587C428.926 108.587 411.932 125.719 411.932 150.036V150.036Z" fill="white"/>
<path d="M742.583 289.315H698.232L750.688 194.811L686.212 76.5889H732.266L773.439 153.776L813.414 76.5889H857.765L742.583 289.315Z" fill="white"/>
<path d="M674.421 79.7664L657.934 117.485C651.431 114.447 644.34 112.875 637.163 112.88C617.82 112.88 604.602 124.669 604.602 147.282V230.779H563.153V77.4176H603.313V94.3656C612.524 79.7664 627.814 73.6411 646.696 73.6411C656.235 73.9636 665.634 76.0399 674.421 79.7664V79.7664Z" fill="white"/>
<path d="M32.975 99.0172H0C0.0365511 72.7674 10.4804 47.6032 29.0418 29.0418C47.6032 10.4804 72.7674 0.0365511 99.0172 0V33.2513C81.5569 33.2754 64.8146 40.2032 52.4424 52.5236C40.0703 64.844 33.0723 81.5571 32.975 99.0172V99.0172Z" fill="#1273EB"/>
<path d="M1340.19 199.047H1373.35C1373.31 225.297 1362.87 250.461 1344.3 269.023C1325.74 287.584 1300.58 298.028 1274.33 298.065V264.905C1291.61 265.065 1308.24 258.367 1320.59 246.281C1332.93 234.194 1339.98 217.705 1340.19 200.429V199.047Z" fill="#1273EB"/>
<path d="M976.355 110.07C961.904 101.091 945.241 96.3077 928.228 96.2539C907.319 96.2539 893.503 105.096 893.503 119.281C893.503 131.532 904.188 137.703 923.438 139.914L940.801 142.078C971.98 146.131 990.171 159.026 990.171 183.067C990.171 210.976 965.026 228.522 925.695 228.522C903.784 228.938 882.311 222.356 864.396 209.732L875.035 192.37C886.226 201.074 901.102 208.351 925.971 208.351C950.841 208.351 966.453 200.107 966.453 184.632C966.453 172.796 956.505 165.704 935.735 163.217L918.234 161.191C885.167 157.138 869.647 142.401 869.647 120.525C869.647 92.892 893.088 75.99 928.32 75.99C948.911 75.6775 969.16 81.2712 986.671 92.109L976.355 110.07Z" fill="white"/>
<path d="M1152.47 151.98C1152.47 154.887 1152.32 157.793 1152.01 160.684H1034.24C1037.51 192.323 1059.71 208.627 1086.24 208.627C1103.52 208.623 1120.16 202.036 1132.76 190.205L1145.19 206.048C1137.19 213.748 1127.72 219.756 1117.35 223.713C1106.97 227.669 1095.91 229.493 1084.81 229.075C1041.38 229.075 1010.53 198.218 1010.53 152.763C1010.53 107.307 1041.52 76.2662 1083.43 76.2662C1123.31 75.9438 1152.19 106.938 1152.47 151.98ZM1034.57 141.894H1128.89C1125.94 114.261 1107.93 96.7604 1082.83 96.7604C1055.8 96.7144 1038.3 115.136 1034.57 141.71V141.894Z" fill="white"/>
<path d="M1279.99 104.452H1216.53V173.994C1216.53 197.021 1228.64 207.061 1245.73 207.061C1256.85 206.878 1267.63 203.241 1276.59 196.653L1287.45 214.2C1274.94 223.772 1259.59 228.893 1243.84 228.753C1212.2 228.753 1193.18 211.39 1193.18 174.455V104.452H1160.94V83.4969H1193.18V36.8438H1216.21V83.4969H1279.67L1279.99 104.452Z" fill="white"/>
</g>
<defs>
<clipPath id="clip0_1183_2219">
<rect width="1373.68" height="300" fill="white"/>
</clipPath>
</defs>
</svg>
